<svg width="134" height="73" viewBox="0 0 134 73" fill="none" xmlns="http://www.w3.org/2000/svg">
<path d="M20.0625 32.0625C18.875 32.0625 17.8594 31.6562 17.0156 30.8438C16.2031 30.0312 15.7969 28.8281 15.7969 27.2344C15.7969 26.8906 15.8125 26.5469 15.8438 26.2031C15.9062 25.8281 15.9844 25.5 16.0781 25.2188C16.1719 24.9062 16.2812 24.6562 16.4062 24.4688C16.5625 24.2812 16.7188 24.1875 16.875 24.1875C17.0312 24.1875 17.1719 24.2344 17.2969 24.3281C17.4531 24.4219 17.6406 24.5312 17.8594 24.6562C18.1094 24.7812 18.4375 24.8906 18.8438 24.9844C19.25 25.0781 19.8125 25.125 20.5312 25.125C22.25 25.125 24.0156 24.8594 25.8281 24.3281C27.6406 23.7656 29.2812 22.9844 30.75 21.9844C32.25 20.9531 33.4688 19.7188 34.4062 18.2812C35.375 16.8438 35.8594 15.2188 35.8594 13.4062C35.8594 12.75 35.75 12.1094 35.5312 11.4844C35.3125 10.8594 34.9844 10.3125 34.5469 9.84375C34.1094 9.34375 33.5469 8.9375 32.8594 8.625C32.2031 8.3125 31.4219 8.15625 30.5156 8.15625C28.0156 8.15625 25.7188 8.70313 23.625 9.79688C21.5625 10.8906 19.6875 12.375 18 14.25C16.3125 16.0938 14.8281 18.2344 13.5469 20.6719C12.2969 23.1094 11.25 25.6875 10.4062 28.4062C9.5625 31.0938 8.92188 33.8281 8.48438 36.6094C8.04688 39.3906 7.82812 42.0312 7.82812 44.5312C7.82812 47.5312 8.01562 50.3125 8.39062 52.875C8.76562 55.4062 9.375 57.5938 10.2188 59.4375C11.0625 61.2812 12.1875 62.7344 13.5938 63.7969C15 64.8281 16.7344 65.3438 18.7969 65.3438C20.6719 65.3438 22.3281 64.875 23.7656 63.9375C25.2031 62.9688 26.4531 61.6719 27.5156 60.0469C28.6094 58.4219 29.5312 56.5312 30.2812 54.375C31.0625 52.1875 31.7344 49.8594 32.2969 47.3906C32.8594 44.9219 33.3438 42.375 33.75 39.75C34.1562 37.125 34.5156 34.5625 34.8281 32.0625C34.9219 31.4375 35.375 30.9688 36.1875 30.6562C37 30.3125 37.8594 30.1406 38.7656 30.1406C39.1406 30.1406 39.5312 30.1875 39.9375 30.2812C40.3438 30.375 40.6875 30.5156 40.9688 30.7031C41.2812 30.8906 41.5 31.1406 41.625 31.4531C41.7812 31.7656 41.8125 32.1562 41.7188 32.625C41.4688 33.875 41.2031 35.8594 40.9219 38.5781C40.6406 41.2656 40.5 44.5 40.5 48.2812C40.5 51.4375 40.5156 54.1562 40.5469 56.4375C40.6094 58.7188 40.6875 60.6875 40.7812 62.3438C40.875 64 40.9688 65.3906 41.0625 66.5156C41.1562 67.6094 41.25 68.5312 41.3438 69.2812C41.5312 69.5625 41.625 69.7812 41.625 69.9375C41.625 70.25 41.4688 70.5469 41.1562 70.8281C40.8438 71.1094 40.4531 71.3594 39.9844 71.5781C39.5156 71.7969 38.9844 71.9688 38.3906 72.0938C37.8281 72.2188 37.2812 72.2812 36.75 72.2812C35.9062 72.2812 35.2656 72.1094 34.8281 71.7656C34.3906 71.4219 34.0625 70.8438 33.8438 70.0312C33.6562 69.25 33.5312 68.2031 33.4688 66.8906C33.4062 65.5469 33.3438 63.9062 33.2812 61.9688C32.5625 63.5 31.6719 64.9219 30.6094 66.2344C29.5469 67.5469 28.3594 68.6875 27.0469 69.6562C25.7344 70.6562 24.2969 71.4375 22.7344 72C21.2031 72.5625 19.5938 72.8438 17.9062 72.8438C15.2812 72.8438 12.875 72.3438 10.6875 71.3438C8.53125 70.3438 6.67188 68.7344 5.10938 66.5156C3.54688 64.2969 2.32812 61.4062 1.45312 57.8438C0.609375 54.25 0.1875 49.875 0.1875 44.7188C0.1875 41.1875 0.515625 37.6562 1.17188 34.125C1.85938 30.5625 2.82812 27.1562 4.07812 23.9062C5.35938 20.6562 6.90625 17.625 8.71875 14.8125C10.5625 12 12.625 9.5625 14.9062 7.5C17.1875 5.4375 19.6719 3.8125 22.3594 2.625C25.0781 1.4375 27.9531 0.84375 30.9844 0.84375C32.9531 0.84375 34.7031 1.15625 36.2344 1.78125C37.7969 2.40625 39.1094 3.28125 40.1719 4.40625C41.2344 5.5 42.0469 6.79688 42.6094 8.29688C43.1719 9.76562 43.4531 11.3438 43.4531 13.0312C43.4531 15.8125 42.7812 18.375 41.4375 20.7188C40.0938 23.0312 38.3281 25.0312 36.1406 26.7188C33.9531 28.4062 31.4531 29.7188 28.6406 30.6562C25.8281 31.5938 22.9688 32.0625 20.0625 32.0625ZM68.9062 71.6719C67.7812 71.6719 66.625 71.5 65.4375 71.1562C64.2812 70.8125 63.2188 70.2188 62.25 69.375C61.3125 68.5312 60.5312 67.4219 59.9062 66.0469C59.3125 64.6406 59.0156 62.875 59.0156 60.75C59.0156 57.6562 59.4219 54.3906 60.2344 50.9531C61.0781 47.4844 62.2812 43.6719 63.8438 39.5156H56.5312H55.4531C55.4219 40.4531 55.3594 41.6406 55.2656 43.0781C55.2031 44.5156 55.0781 46.0469 54.8906 47.6719C54.7031 49.2969 54.4531 50.9375 54.1406 52.5938C53.8594 54.25 53.5 55.7812 53.0625 57.1875C52.75 58.1875 52.25 58.7656 51.5625 58.9219C50.9062 59.0781 50.25 58.9688 49.5938 58.5938C48.9375 58.1875 48.4062 57.6094 48 56.8594C47.5938 56.1094 47.5 55.3281 47.7188 54.5156C47.9688 53.5469 48.1875 52.375 48.375 51C48.5625 49.5938 48.7031 48.125 48.7969 46.5938C48.9219 45.0312 49.0156 43.4844 49.0781 41.9531C49.1406 40.3906 49.1875 39 49.2188 37.7812C48.0312 37.125 47.0469 36.2969 46.2656 35.2969C45.4844 34.2656 45.0938 33.0469 45.0938 31.6406C45.0938 30.9844 45.2188 30.3906 45.4688 29.8594C45.75 29.2969 46.1094 28.8281 46.5469 28.4531C46.9844 28.0469 47.5 27.75 48.0938 27.5625C48.6875 27.3438 49.2969 27.2344 49.9219 27.2344C50.4844 27.2344 51.0625 27.3125 51.6562 27.4688C52.2812 27.625 52.8594 27.9062 53.3906 28.3125C53.9531 28.7188 54.4531 29.25 54.8906 29.9062C55.3281 30.5625 55.6875 31.375 55.9688 32.3438C56.75 32.4375 57.4062 32.5156 57.9375 32.5781C58.5 32.6094 58.9688 32.6406 59.3438 32.6719C59.7188 32.7031 60.0312 32.7188 60.2812 32.7188C60.5312 32.7188 60.7812 32.7188 61.0312 32.7188H66.0469C66.3281 32.7188 66.7344 32.8906 67.2656 33.2344C67.8281 33.5781 68.375 34.0312 68.9062 34.5938C69.4375 35.125 69.875 35.7031 70.2188 36.3281C70.5938 36.9531 70.7344 37.5469 70.6406 38.1094C70.6406 38.2969 70.5312 38.75 70.3125 39.4688C70.0938 40.1875 69.8281 41.0938 69.5156 42.1875C69.2031 43.2812 68.8594 44.5469 68.4844 45.9844C68.1094 47.3906 67.7656 48.875 67.4531 50.4375C67.1406 52 66.875 53.625 66.6562 55.3125C66.4375 56.9688 66.3281 58.5938 66.3281 60.1875C66.3281 60.8438 66.4062 61.4844 66.5625 62.1094C66.7188 62.7344 66.9531 63.2969 67.2656 63.7969C67.5781 64.2656 67.9688 64.6406 68.4375 64.9219C68.9375 65.2031 69.5156 65.3438 70.1719 65.3438C71.2656 65.3438 72.2031 65 72.9844 64.3125C73.7656 63.625 74.4219 62.7656 74.9531 61.7344C75.4844 60.7031 75.9062 59.5938 76.2188 58.4062C76.5625 57.1875 76.8438 56.0469 77.0625 54.9844C77.25 53.9844 77.5625 53.2656 78 52.8281C78.4375 52.3594 78.8906 52.125 79.3594 52.125C79.7344 52.125 80.125 52.25 80.5312 52.5C80.9375 52.7188 81.2969 53.0156 81.6094 53.3906C81.9531 53.7656 82.2188 54.1875 82.4062 54.6562C82.625 55.125 82.7344 55.5938 82.7344 56.0625C82.7344 56.2188 82.7188 56.3438 82.6875 56.4375C82.6562 56.5312 82.6406 56.625 82.6406 56.7188C82.2031 58.3125 81.625 59.9844 80.9062 61.7344C80.2188 63.4844 79.3281 65.0938 78.2344 66.5625C77.1406 68.0312 75.8281 69.25 74.2969 70.2188C72.7656 71.1875 70.9688 71.6719 68.9062 71.6719ZM82.5938 22.8281C81.8125 22.8281 81.0625 22.6719 80.3438 22.3594C79.6562 22.0469 79.0469 21.625 78.5156 21.0938C78.0156 20.5625 77.6094 19.9531 77.2969 19.2656C76.9844 18.5469 76.8281 17.7812 76.8281 16.9688C76.8281 16.125 76.9844 15.3438 77.2969 14.625C77.6094 13.9062 78.0156 13.2969 78.5156 12.7969C79.0469 12.2656 79.6562 11.8594 80.3438 11.5781C81.0625 11.2656 81.8125 11.1094 82.5938 11.1094C83.4375 11.1094 84.2188 11.2656 84.9375 11.5781C85.6562 11.8594 86.2656 12.2656 86.7656 12.7969C87.2969 13.2969 87.7031 13.9062 87.9844 14.625C88.2969 15.3438 88.4531 16.125 88.4531 16.9688C88.4531 17.7812 88.2969 18.5469 87.9844 19.2656C87.7031 19.9531 87.2969 20.5625 86.7656 21.0938C86.2656 21.625 85.6562 22.0469 84.9375 22.3594C84.2188 22.6719 83.4375 22.8281 82.5938 22.8281ZM84.7969 60.9375C84.7969 61.1562 84.8125 61.5156 84.8438 62.0156C84.875 62.4844 84.9688 62.9688 85.125 63.4688C85.2812 63.9688 85.5312 64.4062 85.875 64.7812C86.2188 65.1562 86.7031 65.3438 87.3281 65.3438C88.2656 65.3438 89.0781 65 89.7656 64.3125C90.4844 63.625 91.0938 62.7656 91.5938 61.7344C92.125 60.7031 92.5625 59.5938 92.9062 58.4062C93.25 57.1875 93.5312 56.0469 93.75 54.9844C93.9375 54.0156 94.2188 53.3125 94.5938 52.875C95 52.4375 95.4219 52.2031 95.8594 52.1719C96.3281 52.1094 96.7812 52.2188 97.2188 52.5C97.6875 52.7812 98.0938 53.1562 98.4375 53.625C98.8125 54.0625 99.0781 54.5625 99.2344 55.125C99.4219 55.6875 99.4531 56.2188 99.3281 56.7188C98.8906 58.3125 98.3125 59.9844 97.5938 61.7344C96.9062 63.4844 96.0156 65.0938 94.9219 66.5625C93.8281 68.0312 92.5156 69.25 90.9844 70.2188C89.4531 71.1875 87.6562 71.6719 85.5938 71.6719C84.3125 71.6719 83.1719 71.4219 82.1719 70.9219C81.1719 70.4531 80.3281 69.8125 79.6406 69C78.9531 68.1875 78.4219 67.2344 78.0469 66.1406C77.7031 65.0469 77.5312 63.8906 77.5312 62.6719V37.0312C77.5312 36.125 77.4531 35.4688 77.2969 35.0625C77.1719 34.6562 77.1094 34.2812 77.1094 33.9375C77.1094 33.4688 77.3594 33.0938 77.8594 32.8125C78.3594 32.5 78.9531 32.3438 79.6406 32.3438C81.2344 32.3438 82.4844 32.7656 83.3906 33.6094C84.3281 34.4219 84.7969 35.4062 84.7969 36.5625V60.9375ZM121.266 65.3438C122.234 65.3438 123.062 65 123.75 64.3125C124.469 63.625 125.078 62.7656 125.578 61.7344C126.109 60.7031 126.531 59.5938 126.844 58.4062C127.188 57.1875 127.469 56.0469 127.688 54.9844C127.906 53.9844 128.219 53.2656 128.625 52.8281C129.062 52.3594 129.531 52.125 130.031 52.125C130.406 52.125 130.781 52.25 131.156 52.5C131.562 52.7188 131.922 53.0156 132.234 53.3906C132.578 53.7656 132.844 54.1875 133.031 54.6562C133.25 55.125 133.359 55.5938 133.359 56.0625C133.359 56.125 133.359 56.2031 133.359 56.2969C133.359 56.3906 133.328 56.5312 133.266 56.7188C132.859 58.3125 132.297 59.9844 131.578 61.7344C130.891 63.4844 130 65.0938 128.906 66.5625C127.812 68.0312 126.484 69.25 124.922 70.2188C123.391 71.1875 121.594 71.6719 119.531 71.6719C117.844 71.6719 116.375 71.3125 115.125 70.5938C113.875 69.875 112.891 68.9219 112.172 67.7344C111.203 68.8281 110.031 69.75 108.656 70.5C107.312 71.2812 105.734 71.6719 103.922 71.6719C102.047 71.6719 100.391 71.2969 98.9531 70.5469C97.5469 69.7969 96.3594 68.7812 95.3906 67.5C94.4219 66.1875 93.6875 64.6562 93.1875 62.9062C92.7188 61.125 92.4844 59.2188 92.4844 57.1875C92.4844 53.1875 93.125 49.5938 94.4062 46.4062C95.6875 43.2188 97.3906 40.5156 99.5156 38.2969C101.641 36.0469 104.062 34.3281 106.781 33.1406C109.531 31.9531 112.375 31.3594 115.312 31.3594C116.625 31.3594 117.688 31.7188 118.5 32.4375C119.312 33.1562 119.719 34.1406 119.719 35.3906C119.719 36.2031 119.625 36.7812 119.438 37.125C119.281 37.4375 118.969 37.5938 118.5 37.5938C118.062 37.5938 117.609 37.5625 117.141 37.5C116.672 37.4375 116.188 37.4062 115.688 37.4062C113.875 37.4062 112.031 37.8125 110.156 38.625C108.281 39.4062 106.578 40.625 105.047 42.2812C103.547 43.9062 102.312 45.9844 101.344 48.5156C100.375 51.0156 99.8906 54 99.8906 57.4688C99.8906 60 100.375 61.9531 101.344 63.3281C102.312 64.6719 103.641 65.3438 105.328 65.3438C106.641 65.3438 107.734 64.8594 108.609 63.8906C109.484 62.8906 110.188 61.7188 110.719 60.375V45.5625C110.719 45.0938 110.688 44.7031 110.625 44.3906C110.594 44.0781 110.547 43.8125 110.484 43.5938C110.453 43.375 110.422 43.1875 110.391 43.0312C110.359 42.8438 110.344 42.6719 110.344 42.5156C110.344 42.0156 110.578 41.625 111.047 41.3438C111.547 41.0312 112.141 40.875 112.828 40.875C114.422 40.875 115.688 41.2969 116.625 42.1406C117.562 42.9531 118.031 43.9375 118.031 45.0938V60.9375C118.031 61.4688 118.094 62 118.219 62.5312C118.344 63.0312 118.531 63.5 118.781 63.9375C119.031 64.3438 119.359 64.6875 119.766 64.9688C120.203 65.2188 120.703 65.3438 121.266 65.3438Z" fill="#765D69"/>
</svg>
